<svg id="Layer_1" data-name="Layer 1" xmlns="http://www.w3.org/2000/svg" viewBox="0 0 842 204"><defs><style>.cls-1{fill:#79a85c;}.cls-2{fill:#4dc1bb;}.cls-3{fill:#27bcb2;}.cls-4{fill:#225c6b;}</style></defs><path class="cls-1" d="M101.49,81.83q2.12-2.67,2.12-7.76c0-3.4-.71-6-2.15-7.74a7.9,7.9,0,0,0-11.77,0q-2.13,2.61-2.13,7.76c0,3.42.71,6,2.13,7.78a7.89,7.89,0,0,0,11.8,0M86.74,89A14.33,14.33,0,0,1,81,83.1a19,19,0,0,1-2-9,19,19,0,0,1,2-9,14.1,14.1,0,0,1,5.78-5.92,19.87,19.87,0,0,1,17.7,0A14,14,0,0,1,110.2,65a19.33,19.33,0,0,1,2,9,19.1,19.1,0,0,1-2,9A14.41,14.41,0,0,1,104.39,89a19.59,19.59,0,0,1-17.65,0"/><path class="cls-1" d="M138.59,69.42q2,2.47,2,7.52V90.72h-8.39V77.32a5,5,0,0,0-.74-3,2.6,2.6,0,0,0-2.19-.94,3.89,3.89,0,0,0-3,1.2,4.57,4.57,0,0,0-1.11,3.23V90.72h-8.4V67.51h8.16v3.11a8.12,8.12,0,0,1,3.17-2.73A9.64,9.64,0,0,1,132.4,67q4.15,0,6.19,2.47"/><path class="cls-1" d="M161.52,84.91l-.42,6a24.72,24.72,0,0,1-2.92.18q-5.67,0-8.24-2.38c-1.72-1.59-2.57-4-2.57-7.38V73.69H143V67.51h4.35V60.76h8.4v6.75h5.57v6.18h-5.57v7.69q0,3.68,3.44,3.68a19.8,19.8,0,0,0,2.31-.15"/><path class="cls-1" d="M180.64,79q0-5.85-4.48-5.85T171.67,79q0,5.85,4.49,5.85T180.64,79M169.43,89.61A10.68,10.68,0,0,1,165,85.39,12.58,12.58,0,0,1,163.37,79,12.41,12.41,0,0,1,165,72.58a10.58,10.58,0,0,1,4.46-4.17,16.23,16.23,0,0,1,13.5,0,10.69,10.69,0,0,1,4.46,4.17A12.51,12.51,0,0,1,189,79a12.68,12.68,0,0,1-1.58,6.42,10.81,10.81,0,0,1-4.46,4.22,16.09,16.09,0,0,1-13.48,0"/><rect class="cls-1" x="192.77" y="57.46" width="8.4" height="33.25"/><path class="cls-1" d="M222.22,79q0-5.85-4.48-5.85T213.26,79q0,5.85,4.48,5.85T222.22,79M211,89.61a10.74,10.74,0,0,1-4.48-4.22A12.68,12.68,0,0,1,205,79a12.51,12.51,0,0,1,1.58-6.39A10.63,10.63,0,0,1,211,68.41a16.23,16.23,0,0,1,13.5,0A10.58,10.58,0,0,1,229,72.58,12.41,12.41,0,0,1,230.53,79,12.58,12.58,0,0,1,229,85.39a10.69,10.69,0,0,1-4.46,4.22,16.09,16.09,0,0,1-13.48,0"/><path class="cls-1" d="M249.65,82.39a5.65,5.65,0,0,0,1.22-3.84,5.84,5.84,0,0,0-1.22-3.92,4.89,4.89,0,0,0-6.85,0,5.81,5.81,0,0,0-1.22,3.94,5.52,5.52,0,0,0,1.25,3.84,4.3,4.3,0,0,0,3.37,1.39,4.35,4.35,0,0,0,3.45-1.39m9.49-14.88V87.89q0,5.74-3.43,8.72t-10.12,3a25.54,25.54,0,0,1-6.14-.73,17.92,17.92,0,0,1-5.14-2l2.12-5.71a21.38,21.38,0,0,0,4.51,1.75,17.36,17.36,0,0,0,4.41.61,6,6,0,0,0,4.13-1.2,4.84,4.84,0,0,0,1.35-3.8V86.66a7.21,7.21,0,0,1-3,2.48,9.7,9.7,0,0,1-4.2.91,10.22,10.22,0,0,1-5.38-1.41,9.66,9.66,0,0,1-3.68-4,13.29,13.29,0,0,1-1.32-6.06,13.47,13.47,0,0,1,1.32-6.09,9.79,9.79,0,0,1,3.68-4.08,10.24,10.24,0,0,1,5.38-1.44,9.54,9.54,0,0,1,4.25,1,7.05,7.05,0,0,1,3,2.59v-3Z"/><polygon class="cls-1" points="279.9 67.56 288.12 67.56 273.95 99.21 265.46 99.21 270.13 89.11 260.65 67.56 269.43 67.56 274.52 80.62 279.9 67.56"/><path class="cls-2" d="M70.67,119.91l4.58,10.66H66.09Zm-3.54-9.2L51.6,144h8.73l3-6.89H78L81,144H89.6L74,110.71Z"/><rect class="cls-2" x="91.01" y="110.71" width="8.4" height="33.25"/><path class="cls-2" d="M104.27,120.76h8.4V144h-8.4Zm-.18-11.6h8.77v7.59h-8.77Z"/><path class="cls-2" d="M132.83,135.64a5.61,5.61,0,0,0,1.23-3.84,5.79,5.79,0,0,0-1.23-3.92,4.33,4.33,0,0,0-3.45-1.41,4.27,4.27,0,0,0-3.39,1.39,5.76,5.76,0,0,0-1.23,3.94,5.52,5.52,0,0,0,1.25,3.84,4.3,4.3,0,0,0,3.37,1.39,4.35,4.35,0,0,0,3.45-1.39m9.49-14.88v20.37q0,5.76-3.43,8.73t-10.12,3a25.54,25.54,0,0,1-6.14-.73,18.34,18.34,0,0,1-5.14-2l2.12-5.71a21.38,21.38,0,0,0,4.51,1.75,17.36,17.36,0,0,0,4.41.61,6,6,0,0,0,4.13-1.2,4.84,4.84,0,0,0,1.35-3.8v-1.79a7.21,7.21,0,0,1-3,2.48,9.68,9.68,0,0,1-4.19.91,10.23,10.23,0,0,1-5.39-1.41,9.66,9.66,0,0,1-3.68-4,14.64,14.64,0,0,1,0-12.15,9.79,9.79,0,0,1,3.68-4.08,10.25,10.25,0,0,1,5.39-1.44,9.52,9.52,0,0,1,4.24,1,7.14,7.14,0,0,1,3,2.59v-3Z"/><path class="cls-2" d="M169,122.67c1.36,1.65,2,4.16,2,7.52V144h-8.4v-13.4a5,5,0,0,0-.73-3,2.61,2.61,0,0,0-2.2-.94,3.88,3.88,0,0,0-3,1.2,4.57,4.57,0,0,0-1.11,3.23V144h-8.4V120.76h8.16v3.11a8.09,8.09,0,0,1,3.16-2.73,9.65,9.65,0,0,1,4.3-.94q4.16,0,6.18,2.47"/><path class="cls-2" d="M211.44,122.65q2,2.44,2,7.55V144H205V130.43a5.28,5.28,0,0,0-.62-2.92,2.25,2.25,0,0,0-2-.9,3.15,3.15,0,0,0-2.67,1.22,5.72,5.72,0,0,0-.92,3.5V144h-8.4V130.43a5.38,5.38,0,0,0-.61-2.92,2.3,2.3,0,0,0-2-.9,3.08,3.08,0,0,0-2.64,1.22,5.86,5.86,0,0,0-.9,3.5V144h-8.4V120.76H184v2.92a7.92,7.92,0,0,1,7.08-3.49q5,0,6.75,4.11a8.59,8.59,0,0,1,3.23-3,9.19,9.19,0,0,1,4.42-1.09c2.7,0,4.71.82,6,2.46"/><path class="cls-2" d="M225.11,130h7.41q-.28-4.16-3.59-4.15c-2.23,0-3.51,1.38-3.82,4.15m14.44,4H225.2a4.94,4.94,0,0,0,1.65,3.25,5.82,5.82,0,0,0,3.64,1,11.58,11.58,0,0,0,6.56-2.12l2.12,5.52a13.42,13.42,0,0,1-4.2,2,17,17,0,0,1-4.91.73,15.23,15.23,0,0,1-6.93-1.46,10.37,10.37,0,0,1-4.51-4.2,12.51,12.51,0,0,1-1.58-6.41,13,13,0,0,1,1.48-6.25,10.71,10.71,0,0,1,4.15-4.29,11.9,11.9,0,0,1,6-1.54,10.25,10.25,0,0,1,7.93,3.19q2.92,3.18,2.93,8.7Z"/><path class="cls-2" d="M265.18,122.67q2,2.47,2,7.52V144h-8.4v-13.4a5,5,0,0,0-.74-3,2.58,2.58,0,0,0-2.19-.94,3.89,3.89,0,0,0-3,1.2,4.57,4.57,0,0,0-1.11,3.23V144h-8.4V120.76h8.17v3.11a8,8,0,0,1,3.16-2.73,9.64,9.64,0,0,1,4.29-.94q4.15,0,6.19,2.47"/><path class="cls-2" d="M288.12,138.16l-.43,6a24.59,24.59,0,0,1-2.92.18q-5.67,0-8.24-2.38c-1.72-1.59-2.57-4.05-2.57-7.38v-7.64h-4.35v-6.18H274V114h8.4v6.75h5.57v6.18h-5.57v7.69q0,3.68,3.44,3.68a20,20,0,0,0,2.32-.15"/><path class="cls-3" d="M334.66,109.13a4.22,4.22,0,0,0-1.24,2.44,1.69,1.69,0,0,1-.5,1,1.8,1.8,0,0,1-2.54,0l-8.87-8.87-24.75,24.73,24.75,24.73,24.75-24.73-8.88-8.87a1.79,1.79,0,0,1,0-2.53h0a1.72,1.72,0,0,1,1-.5,4.33,4.33,0,1,0-3.7-7.36"/><path class="cls-4" d="M333.68,111.32a4.32,4.32,0,0,1,1.23-2.45,4.38,4.38,0,0,1,5.95-.14,4.33,4.33,0,0,1-2.24,7.5,1.69,1.69,0,0,0-1,.5h0a1.8,1.8,0,0,0,0,2.54l8.88,8.87,24.75-24.73L346.51,78.68l-8.88,8.87a1.79,1.79,0,0,0,0,2.53,1.69,1.69,0,0,0,1,.5A4.25,4.25,0,0,1,341,91.82a4.33,4.33,0,0,1-6.15,6.1,4.28,4.28,0,0,1-1.21-2.4,1.85,1.85,0,0,0-.5-1,1.8,1.8,0,0,0-2.54,0l-8.88,8.87,8.88,8.87a1.8,1.8,0,0,0,3-1"/><path class="cls-1" d="M341.18,97.8a4.38,4.38,0,0,0-.14-5.94,4.28,4.28,0,0,0-2.45-1.24,1.68,1.68,0,0,1-1-.49,1.8,1.8,0,0,1,0-2.54h0l8.87-8.87L321.76,54l-8.88,8.87a1.8,1.8,0,0,0,0,2.54,1.71,1.71,0,0,0,1,.49,4.28,4.28,0,0,1,2.45,1.24,4.33,4.33,0,0,1-6.15,6.11,4.28,4.28,0,0,1-1.21-2.41,1.8,1.8,0,0,0-3-1L297,78.72l8.88,8.87a1.8,1.8,0,0,1,0,2.54,1.74,1.74,0,0,1-1,.49,4.34,4.34,0,1,0,4.92,4.94,1.78,1.78,0,0,1,.5-1h0a1.8,1.8,0,0,1,2.54,0l8.88,8.87,8.87-8.87a1.8,1.8,0,0,1,2.54,0h0a1.72,1.72,0,0,1,.5,1A4.29,4.29,0,0,0,334.89,98a4.34,4.34,0,0,0,6.29-.17"/><path class="cls-4" d="M418.41,97.44q6.55,0,9.71-2.92c2.1-2,3.15-5,3.15-9s-1-7.11-3.15-9.1-5.34-3-9.71-3h-17v24ZM377.76,54.09h43.86q15.06,0,23.42,8.27t8.36,23q0,14.6-8.43,22.92t-23.35,8.34H401.43V152H377.76Z"/><path class="cls-4" d="M510.77,102.16l-12.47,1.39q-7.47.84-10.43,4.31t-3,9.86V152H462V83.68h21.74V95.49A18,18,0,0,1,491,86a24.49,24.49,0,0,1,12.22-3.68l6.31-.56Z"/><path class="cls-4" d="M558.75,117.45q0-17.24-12.21-17.23t-12.22,17.23q0,17.22,12.22,17.22t12.21-17.22M528.2,148.78A30.18,30.18,0,0,1,516,136.34a39.4,39.4,0,0,1-4.31-18.89A39,39,0,0,1,516,98.62a29.85,29.85,0,0,1,12.15-12.29,41.41,41.41,0,0,1,36.79,0,29.88,29.88,0,0,1,12.16,12.29,39.13,39.13,0,0,1,4.31,18.83,39.51,39.51,0,0,1-4.31,18.89,30.3,30.3,0,0,1-12.16,12.44,40.69,40.69,0,0,1-36.73,0"/><path class="cls-4" d="M591.05,49.51H615V71.87H591.05Zm23.67,96.56q0,11.25-3,17.78a19.38,19.38,0,0,1-9.65,9.73q-6.69,3.19-18.4,4l-6.3.41-1.54-17.5,7-.56c3.34-.28,5.67-1.09,7-2.43s2-3.54,2-6.6V83.68h22.9Z"/><path class="cls-4" d="M647,110.91H667.2q-.76-12.22-9.77-12.22T647,110.91m39.36,11.68H647.26q1,6.66,4.51,9.59t9.9,2.91a28,28,0,0,0,9.39-1.67,29.27,29.27,0,0,0,8.49-4.58l5.79,16.26a36.1,36.1,0,0,1-11.45,5.9,43.33,43.33,0,0,1-13.38,2.16q-10.92,0-18.9-4.31a29.56,29.56,0,0,1-12.29-12.37,39.41,39.41,0,0,1-4.31-18.9,40.67,40.67,0,0,1,4-18.4A30.09,30.09,0,0,1,656.78,82q13.63,0,21.62,9.37t8,25.64Z"/><path class="cls-4" d="M703,143.71q-9.12-9.45-9.13-25.71a39.09,39.09,0,0,1,4.44-18.9,31.07,31.07,0,0,1,12.48-12.64A37.81,37.81,0,0,1,729.34,82,42.78,42.78,0,0,1,743,84.24a29.89,29.89,0,0,1,10.75,6L748,106.89a25.62,25.62,0,0,0-7.79-4.52,24.06,24.06,0,0,0-8.55-1.74q-6.95,0-10.61,4.17t-3.67,12.65q0,8.47,3.67,12.78t10.61,4.31a24.06,24.06,0,0,0,8.55-1.74,24.34,24.34,0,0,0,7.79-4.65L753.78,145a30.41,30.41,0,0,1-11.13,6,46.77,46.77,0,0,1-14.34,2.16q-16.21,0-25.35-9.45"/><path class="cls-4" d="M806,135l-1.16,17.65a59.62,59.62,0,0,1-8,.56q-15.43,0-22.45-7t-7-21.75V101.88H755.57V83.68h11.84V63.81h22.9V83.68h15.18v18.2H790.31v22.65q0,10.85,9.39,10.84A52.75,52.75,0,0,0,806,135"/></svg>